# 3ds Max Wavefront OBJ Exporter v0.97b - (c)2007 guruware
# File Created: 15.02.2017 18:46:26

mtllib blu_chiodo.mtl

#
# object Box007
#

v  -0.0000 21.4755 -42.9509
v  -0.0000 21.4755 -21.4754
v  -0.0000 0.0001 -21.4754
v  -0.0000 0.0001 -42.9509
v  -834.9590 0.0001 -21.4755
v  -834.9590 0.0001 -42.9509
v  -0.0000 42.9510 -21.4754
v  -834.9590 42.9510 -21.4755
v  -834.9590 42.9510 -0.0001
v  -0.0000 42.9510 -0.0000
v  -0.0000 0.0001 -0.0000
v  -0.0000 21.4755 -0.0000
v  -834.9590 21.4755 -0.0001
v  -834.9590 0.0001 -0.0001
v  -0.0000 42.9510 -42.9509
v  -834.9590 21.4755 -42.9510
v  -834.9590 42.9510 -42.9509
v  -834.9590 86.4192 -21.4755
v  -1054.9590 21.4755 -21.4755
v  -834.9590 21.4755 -86.4191
v  -834.9590 -43.4681 -21.4755
v  -834.9590 21.4755 43.4682
# 22 vertices

vn 1.0000 0.0000 0.0000
vn 0.0000 -1.0000 -0.0000
vn 0.7071 -0.7071 -0.0000
vn 0.7075 -0.4997 -0.4997
vn 0.0000 -0.7071 -0.7071
vn -0.0000 1.0000 0.0000
vn 0.7071 0.7071 0.0000
vn 0.7075 0.4997 0.4997
vn -0.0000 0.7071 0.7071
vn -0.0000 -0.7071 0.7071
vn -0.0000 -0.0000 1.0000
vn 0.7071 -0.0000 0.7071
vn 0.7075 -0.4997 0.4997
vn 0.7071 0.0000 -0.7071
vn 0.0000 0.0000 -1.0000
vn 0.7075 0.4997 -0.4997
vn 0.0000 0.7071 -0.7071
vn -0.2079 0.6917 0.6917
vn -0.4138 0.9104 -0.0000
vn -1.0000 -0.0000 -0.0000
vn -0.2079 0.6917 -0.6917
vn -0.4138 0.0000 -0.9104
vn -0.2079 -0.6917 -0.6917
vn -0.4138 -0.9104 -0.0000
vn -0.2079 -0.6917 0.6917
vn -0.4138 -0.0000 0.9104
# 26 vertex normals

vt 1.0000 0.5000 0.0000
vt 0.5000 0.5000 0.0000
vt 0.5000 0.0000 0.0000
vt 1.0000 0.0000 0.0000
vt 0.5000 0.5257 0.0000
vt -0.0000 0.5257 0.0000
vt 0.0000 0.0000 0.0000
vt 0.0000 0.5257 0.0000
vt 1.0000 1.0000 0.0000
vt 0.5000 1.0000 0.0000
vt 1.0000 0.5257 0.0000
vt 0.0000 0.5000 0.0000
vt 0.0000 1.0000 0.0000
vt 0.5000 0.7101 0.0000
vt 0.5000 0.8125 0.0000
# 15 texture coords

g Box007
usemtl 07___Default
s 2
f 1/1/1 2/2/1 3/3/1 
f 3/3/1 4/4/1 1/1/1 
s 40
f 3/3/2 5/5/3 6/6/4 
f 6/6/4 4/7/5 3/3/2 
s 32
f 7/3/6 8/5/7 9/6/8 
f 9/6/8 10/7/9 7/3/6 
s 48
f 11/7/10 12/3/11 13/5/12 
f 13/5/12 14/8/13 11/7/10 
s 2
f 15/9/1 7/10/1 2/2/1 
f 2/2/1 1/1/1 15/9/1 
s 96
f 4/4/5 6/11/4 16/5/14 
f 16/5/14 1/3/15 4/4/5 
s 48
f 10/4/9 9/11/8 13/5/12 
f 13/5/12 12/3/11 10/4/9 
s 96
f 16/5/14 17/6/16 15/7/17 
f 15/7/17 1/3/15 16/5/14 
s 2
f 12/12/1 11/7/1 3/3/1 
f 3/3/1 2/2/1 12/12/1 
s 40
f 11/4/10 14/11/13 5/5/3 
f 5/5/3 3/3/2 11/4/10 
s 32
f 15/4/17 17/11/16 8/5/7 
f 8/5/7 7/3/6 15/4/17 
s 2
f 10/13/1 12/12/1 2/2/1 
f 2/2/1 7/10/1 10/13/1 
s 32
f 17/9/16 18/10/1 8/14/7 
s 4
f 9/9/18 18/10/19 19/15/20 
s 32
f 18/10/1 9/13/8 8/14/7 
s 4
f 18/10/19 17/13/21 19/15/20 
s 32
f 6/9/4 20/10/1 16/14/14 
s 4
f 17/9/21 20/10/22 19/15/20 
s 32
f 20/10/1 17/13/16 16/14/14 
s 4
f 20/10/22 6/13/23 19/15/20 
s 32
f 14/9/13 21/10/1 5/14/3 
s 4
f 6/9/23 21/10/24 19/15/20 
s 32
f 21/10/1 6/13/4 5/14/3 
s 4
f 21/10/24 14/13/25 19/15/20 
s 32
f 9/9/8 22/10/1 13/14/12 
s 4
f 14/9/25 22/10/26 19/15/20 
s 32
f 22/10/1 14/13/13 13/14/12 
s 4
f 22/10/26 9/13/18 19/15/20 
# 40 faces

